<?xml version="1.0" encoding="utf-8"?>
<!-- Generator: Adobe Illustrator 15.0.2, SVG Export Plug-In . SVG Version: 6.00 Build 0)  -->
<!DOCTYPE svg PUBLIC "-//W3C//DTD SVG 1.1//EN" "http://www.w3.org/Graphics/SVG/1.1/DTD/svg11.dtd">
<svg version="1.1" id="Layer_1" xmlns="http://www.w3.org/2000/svg" xmlns:xlink="http://www.w3.org/1999/xlink" x="0px" y="0px"
	 width="720px" height="576px" viewBox="0 0 720 576" style="enable-background:new 0 0 720 576;" xml:space="preserve">
<path style="fill:#6C3143;" d="M340.597,333.883c0.577,1.879,0.071,4.626-1.593,6.145c-1.518,1.445-4.049,2.459-6,2.387
	c-2.387-0.072-3.471-0.867-3.614-3.253c-0.072-1.662,0.291-4.121,1.807-5.277c1.447-1.157,3.832-2.024,5.931-2.024
	C338.789,331.857,340.16,332.438,340.597,333.883z M342.908,294.844c-1.879,0.072-5.277,1.156-7.229,1.733
	c-2.169,0.651-2.746,1.303-3.107,3.108c-0.649,3.614-1.229,8.748-1.229,12.437c-0.071,2.892-0.577,9.037-0.577,13.155
	c0,0.938,0,1.736,0.071,2.388c0.146,1.589,3.398,0.288,4.771-0.072c2.096-0.579,3.758-0.579,3.977-2.024
	c0.215-1.373,1.228-8.529,1.517-9.903c0.362-2.313,0.868-5.565,1.521-9.181c1.012-5.352,1.879-7.229,2.096-9.037
	C345.006,295.855,345.078,294.771,342.908,294.844z"/>
</svg>