<?xml version="1.0" encoding="utf-8"?>
<!-- Generator: Adobe Illustrator 15.0.2, SVG Export Plug-In . SVG Version: 6.00 Build 0)  -->
<!DOCTYPE svg PUBLIC "-//W3C//DTD SVG 1.1//EN" "http://www.w3.org/Graphics/SVG/1.1/DTD/svg11.dtd">
<svg version="1.1" id="Layer_1" xmlns="http://www.w3.org/2000/svg" xmlns:xlink="http://www.w3.org/1999/xlink" x="0px" y="0px"
	 width="720px" height="576px" viewBox="0 0 720 576" enable-background="new 0 0 720 576" xml:space="preserve">
<g>
	<path fill="#6C3143" d="M310.615,306.786c-1.018,5.995-8.457,12.353-8.457,12.353s8.996,1.043,10.664,5.681
		c1.662,4.638-2.408,10.963-2.408,10.963s0.295-0.049,0.81-0.103c2.088-0.212,7.778-0.478,11.905,2.265
		c5.144,3.41,3.445,10.741,3.445,10.741s5.707-2.439,10.289-2.903c1.209-0.122,2.338-0.107,3.264,0.123
		c4.445,1.121,10.205,5.728,10.205,5.728s4.89-2.461,9.508-2.93c1.451-0.146,2.875-0.099,4.111,0.286
		c5.182,1.604,13.723,6.927,13.723,6.927s0.576-4.983,4.766-7.174c0.761-0.397,1.73-0.627,2.816-0.737
		c4.895-0.496,12.052,1.448,12.052,1.448s-2.218-6.184,0.561-9.702c1.521-1.932,4.895-2.674,7.631-2.951
		c2.25-0.229,4.067-0.141,4.067-0.141s-2.451-8.036-1.048-14.69s9.909-12.348,9.909-12.348s-7.247-1.716-9.118-6.751
		c-1.868-5.035,2.711-11.151,2.711-11.151s-13.277-0.439-17.421-3.32c-4.145-2.883-7.211-12.113-7.211-12.113
		s-5.623,2.876-10.961,3.417c-1.436,0.146-2.85,0.122-4.129-0.171c-6.029-1.389-16.375-8.955-16.375-8.955s-3.549,4.84-8.559,5.441
		c-0.029,0.004-0.062,0.008-0.094,0.011c-5.02,0.509-13.609-5.966-13.609-5.966s-1.35,6.18-4.352,11.792
		c-0.605-3.598-1.238-7.637-1.404-9.053c-1.719-14.832-1.904-21.117-1.904-21.117l-1.225,1.302l-3.561,3.779l4.207-27.215
		l1.387-8.962v0.002l0.107-0.691l-4.648,13.095l-15.979,43.647l8.916-5.809c0.525,5.963,0.192,17.839-1.115,22.988
		c-4.065,1.409-7.524,1.901-9.164,2.069c-0.65,0.064-1.014,0.08-1.014,0.08S311.633,300.791,310.615,306.786z"/>
	<path fill="#6C3143" d="M375.988,351.428c-3.081-1.764-7.718-4.241-11.149-5.305c-1.059-0.329-2.255-0.496-3.554-0.496
		c-0.557,0-1.145,0.03-1.747,0.092c-3.387,0.344-6.823,1.604-8.82,2.446c-2.164-1.567-6.236-4.255-9.858-5.169
		c-0.775-0.192-1.645-0.29-2.592-0.29c-0.534,0-1.108,0.031-1.707,0.092c-2.277,0.23-4.754,0.882-6.796,1.531
		c-0.276-2.944-1.427-6.531-4.979-8.885c-3.035-2.018-6.653-2.688-9.549-2.847c0.894-2.584,1.47-5.828,0.409-8.79
		c-1.198-3.33-4.569-5.251-7.61-6.337c2.313-2.67,4.891-6.376,5.537-10.183c0.628-3.698-1.023-6.923-2.994-9.33
		c1.371-0.322,2.89-0.746,4.494-1.302c0.954-0.331,1.677-1.119,1.925-2.097c1.477-5.816,1.698-18.291,1.196-23.99
		c-0.092-1.049-0.729-1.974-1.676-2.435c-0.416-0.202-0.865-0.302-1.312-0.302c-0.572,0-1.142,0.164-1.638,0.486l-1.361,0.887
		l7.01-19.149l-0.966,6.25c-0.201,1.299,0.467,2.577,1.648,3.154c0.42,0.205,0.87,0.305,1.316,0.305
		c0.808,0,1.604-0.326,2.185-0.943l0.065-0.069c0.283,3.407,0.737,8.145,1.462,14.393c0.183,1.568,0.855,5.816,1.425,9.205
		c0.213,1.266,1.207,2.255,2.474,2.463c0.163,0.027,0.325,0.04,0.486,0.04c1.093,0,2.117-0.599,2.645-1.585
		c1.58-2.954,2.724-6.026,3.481-8.395c3.088,1.895,7.58,4.183,11.25,4.183c0.303,0,0.599-0.015,0.887-0.043
		c0.031-0.003,0.156-0.018,0.188-0.022c3.779-0.453,6.775-2.672,8.609-4.433c3.539,2.417,10.389,6.776,15.255,7.897
		c0.972,0.223,2.032,0.335,3.156,0.335c0.623,0,1.279-0.035,1.95-0.103c3.312-0.335,6.661-1.453,8.981-2.378
		c1.387,3.293,3.9,8.276,7.174,10.552c3.124,2.173,9.607,3.132,14.228,3.552c-1.093,2.66-1.862,6.145-0.617,9.501
		c1.167,3.141,3.705,5.232,6.082,6.569c-2.782,2.587-6.063,6.442-6.996,10.866c-0.924,4.381-0.384,9.181,0.224,12.409
		c-0.199,0.017-0.403,0.035-0.61,0.057c-4.667,0.473-7.925,1.846-9.685,4.079c-1.831,2.319-2.172,5.227-2.014,7.669
		c-1.968-0.342-4.313-0.64-6.508-0.64c-0.721,0-1.406,0.032-2.037,0.097c-1.561,0.158-2.837,0.506-3.903,1.062
		C378.46,347.438,376.909,349.543,375.988,351.428z"/>
	<path fill="#6C3143" d="M374.952,347.417c-2.967-1.603-6.42-3.29-9.226-4.159c-1.345-0.418-2.84-0.631-4.441-0.631
		c-0.664,0-1.354,0.036-2.052,0.107c-2.933,0.298-5.846,1.182-8.121,2.042c-2.697-1.833-6.197-3.851-9.519-4.689
		c-1.023-0.254-2.139-0.381-3.326-0.381c-0.631,0-1.307,0.036-2.009,0.107c-1.273,0.129-2.673,0.379-4.185,0.747
		c-0.982-3.205-2.892-5.802-5.63-7.617c-2.12-1.409-4.618-2.386-7.453-2.917c0.436-2.624,0.262-5.046-0.521-7.23
		c-0.933-2.594-2.891-4.783-5.743-6.456c2.063-2.952,3.339-5.816,3.803-8.55c0.455-2.678,0.026-5.403-1.245-8.04
		c0.258-0.084,0.514-0.171,0.77-0.259c1.915-0.665,3.354-2.232,3.851-4.193c1.576-6.209,1.809-18.948,1.276-24.991
		c-0.184-2.086-1.468-3.952-3.352-4.869c-0.295-0.144-0.604-0.263-0.919-0.356l1.17-3.198c0.161,0.098,0.328,0.189,0.5,0.273
		c0.693,0.339,1.456,0.542,2.226,0.595c0.309,3.279,0.69,6.876,1.138,10.741c0.198,1.693,0.889,6.037,1.447,9.357
		c0.426,2.531,2.414,4.511,4.947,4.926c0.316,0.052,0.644,0.079,0.971,0.079c2.216,0,4.243-1.214,5.29-3.169
		c0.894-1.67,1.722-3.492,2.477-5.443c3.657,1.87,6.879,2.815,9.608,2.815c0.406,0,0.801-0.02,1.187-0.059l0.305-0.037
		c3.421-0.41,6.286-1.993,8.421-3.643c4.416,2.886,9.96,6.048,14.353,7.06c1.193,0.273,2.48,0.412,3.83,0.412
		c0.725,0,1.482-0.04,2.254-0.119c2.501-0.253,4.993-0.901,7.096-1.595c1.683,3.429,4.048,7.164,7.043,9.247
		c2.413,1.679,6.448,2.908,12.022,3.667c-0.571,2.835-0.412,5.541,0.488,7.966c0.831,2.237,2.289,4.257,4.286,5.965
		c-2.3,2.624-4.52,5.995-5.323,9.809c-0.752,3.565-0.643,7.321-0.27,10.458c-4.206,0.787-7.303,2.413-9.223,4.85
		c-1.33,1.685-2.181,3.753-2.521,6.093c-1.303-0.138-2.521-0.207-3.644-0.207c-0.825,0-1.613,0.038-2.342,0.112
		c-1.944,0.197-3.576,0.65-4.986,1.388C377.832,344.381,376.238,345.737,374.952,347.417z"/>
	<path fill="#FCE938" d="M356.023,327.883c0.578,1.879,0.072,4.626-1.59,6.146c-1.52,1.444-4.049,2.459-6.002,2.387
		c-2.385-0.072-3.471-0.867-3.613-3.253c-0.072-1.662,0.287-4.121,1.809-5.277c1.445-1.157,3.83-2.023,5.926-2.023
		C354.217,325.857,355.59,326.438,356.023,327.883z"/>
	<path fill="#FCE938" d="M358.338,288.844c-1.881,0.072-5.278,1.156-7.231,1.733c-2.168,0.651-2.744,1.303-3.106,3.108
		c-0.65,3.613-1.229,8.748-1.229,12.437c-0.071,2.892-0.576,9.037-0.576,13.155c0,0.938,0,1.735,0.07,2.388
		c0.146,1.589,3.397,0.288,4.771-0.072c2.098-0.579,3.76-0.579,3.976-2.023c0.219-1.373,1.229-8.529,1.521-9.903
		c0.36-2.312,0.868-5.564,1.518-9.182c1.012-5.352,1.881-7.229,2.098-9.036C360.435,289.855,360.506,288.771,358.338,288.844z"/>
	<path fill="#FCE938" d="M370.598,327.883c0.576,1.879,0.07,4.626-1.594,6.146c-1.518,1.444-4.049,2.459-6,2.387
		c-2.387-0.072-3.471-0.867-3.614-3.253c-0.072-1.662,0.291-4.121,1.807-5.277c1.447-1.157,3.832-2.023,5.931-2.023
		C368.789,325.857,370.16,326.438,370.598,327.883z M372.908,288.844c-1.879,0.072-5.277,1.156-7.229,1.733
		c-2.17,0.651-2.746,1.303-3.107,3.108c-0.649,3.613-1.229,8.748-1.229,12.437c-0.071,2.892-0.577,9.037-0.577,13.155
		c0,0.938,0,1.735,0.071,2.388c0.146,1.589,3.397,0.288,4.771-0.072c2.097-0.579,3.759-0.579,3.978-2.023
		c0.215-1.373,1.228-8.529,1.517-9.903c0.362-2.312,0.869-5.564,1.521-9.182c1.012-5.352,1.879-7.229,2.096-9.036
		C375.006,289.855,375.078,288.771,372.908,288.844z"/>
</g>
</svg>
