solid Exported from Blender-2.74 (sub 0)
facet normal 0.000000 0.000000 1.000000
outer loop
vertex -5 -5 5
vertex 5 -5 5
vertex 5 5 5
endloop
endfacet
facet normal 0.000000 0.000000 1.000000
outer loop
vertex 5 5 5
vertex -5 5 5
vertex -5 -5 5
endloop
endfacet
facet normal 0.000000 1.000000 0.000000
outer loop
vertex 5 5 5
vertex 5 5 -5
vertex -5 5 -5
endloop
endfacet
facet normal 0.000000 1.000000 0.000000
outer loop
vertex -5 5 -5
vertex -5 5 5
vertex 5 5 5
endloop
endfacet
facet normal 0.000000 0.000000 -1.000000
outer loop
vertex 5 -5 -5
vertex -5 -5 -5
vertex -5 5 -5
endloop
endfacet
facet normal 0.000000 0.000000 -1.000000
outer loop
vertex -5 5 -5
vertex 5 5 -5
vertex 5 -5 -5
endloop
endfacet
facet normal 0.000000 -1.000000 0.000000
outer loop
vertex -5 -5 -5
vertex 5 -5 -5
vertex 5 -5 5
endloop
endfacet
facet normal 0.000000 -1.000000 0.000000
outer loop
vertex 5 -5 5
vertex -5 -5 5
vertex -5 -5 -5
endloop
endfacet
facet normal -1.000000 0.000000 0.000000
outer loop
vertex -5 -5 -5
vertex -5 -5 5
vertex -5 5 5
endloop
endfacet
facet normal -1.000000 0.000000 0.000000
outer loop
vertex -5 5 5
vertex -5 5 -5
vertex -5 -5 -5
endloop
endfacet
facet normal 1.000000 0.000000 0.000000
outer loop
vertex 5 -5 5
vertex 5 -5 -5
vertex 5 5 -5
endloop
endfacet
facet normal 1.000000 0.000000 0.000000
outer loop
vertex 5 5 -5
vertex 5 5 5
vertex 5 -5 5
endloop
endfacet
endsolid Exported from Blender-2.74 (sub 0)
