# Blender v2.74 (sub 0) OBJ File: ''
# www.blender.org
o Testcube_10Mm
v -5.674126 -7.056395 2.944164
v 4.325874 -7.056395 2.944164
v 4.325874 2.943606 2.944164
v -5.674126 2.943606 2.944164
v -5.674126 -7.056395 -7.055836
v 4.325874 -7.056395 -7.055836
v 4.325874 2.943606 -7.055836
v -5.674126 2.943606 -7.055836
vn 0.000000 1.000000 0.000000
vn 0.000000 0.000000 -1.000000
vn 0.000000 -1.000000 0.000000
vn 0.000000 0.000000 1.000000
vn -1.000000 0.000000 0.000000
vn 1.000000 0.000000 0.000000
s off
f 4//1 3//1 7//1 8//1
f 7//2 6//2 5//2 8//2
f 2//3 1//3 5//3 6//3
f 3//4 4//4 1//4 2//4
f 1//5 4//5 8//5 5//5
f 3//6 2//6 6//6 7//6
