<?xml version="1.0" encoding="utf-8"?>
<!-- Generator: Adobe Illustrator 15.0.2, SVG Export Plug-In . SVG Version: 6.00 Build 0)  -->
<!DOCTYPE svg PUBLIC "-//W3C//DTD SVG 1.1//EN" "http://www.w3.org/Graphics/SVG/1.1/DTD/svg11.dtd">
<svg version="1.1" id="Layer_1" xmlns="http://www.w3.org/2000/svg" xmlns:xlink="http://www.w3.org/1999/xlink" x="0px" y="0px"
	 width="720px" height="576px" viewBox="0 0 720 576" style="enable-background:new 0 0 720 576;" xml:space="preserve">
<path style="fill:none;stroke:#06FC1D;stroke-miterlimit:10;" d="M290.149,213.033c0,0,5.652-4.453,18.361-4.993
	s36.748,0.646,36.748,0.646s-4.437-1.898-6.714,3.259s0.096,4.45-5.058,7.462s-9.697,2.469-13.075,5.482s-4.034,5.55-4.034,5.55
	s-5.443,0.201-7.621-2.99s0.731-6.59-3.985-9.699S290.149,213.033,290.149,213.033z"/>
<path style="fill:none;stroke:#06FC1D;stroke-miterlimit:10;" d="M193.991,221.632c0,0,7.537-2.878,9.114-2.529
	s19.896,2.5,19.896,2.5s9.34-2.153,15.537-0.763s15.804,2.809,20.749,1.821s7.771-1.667,12.017,0.073s-1.458,3.972-3.153,4.947
	s-6.354,3.595,0.238,5.578s10.273,6.674,11.468,5.827s1.168-3.597,1.168-3.597s1.982-0.483,1.584-2.747s-1.009-4.669-1.009-4.669
	l8.343,1.367c0,0-0.179,2.582,1.328,2.575s3.372-2.869,3.372-2.869s1.963,4.625,4.381,5.549s4.673,3.162,4.673,3.162
	s-2.413,1.312-7.333,2.349s-6.639,2.196-6.639,2.196s3.415-1.199,4.729,0.305s0.059,1.75-2.793,3.217s-5.055,3.838-6.74,5.26
	s-1.387,3.808-1.387,3.808s-5.41,3.072-5.415,4.155s1.189,5.306,0.401,6.041s-0.766-5.004-4.761-4.932s-4.342,1.004-4.342,1.004
	s-3.411-2.614-5.305,0.342s-2.642,3.692-2.127,7.42s3.321,3.3,3.642,3.174c0,0,2.729-0.473,3.391-1.722s0.662-1.249,0.662-1.249
	l2.996-0.147l-1.871,5.174c0,0,4.591-0.148,5.049,0.88s-1.298,1.977-0.131,3.864s2.231,2.677,2.231,2.677s0.939-0.854,1.894-0.731
	s2.764,0.938,2.764,0.938l2.043-2.49l3.351-1.322l-0.043,3.384l1.623-3.067l2.333,1.591l2.637,0.429l2.564-0.452l1.146,0.949
	c0,0,1.546,2.099,3.441,2.999s4.051,0.494,5.339,1.578s0.939,3.715,2.716,4.753c1.777,1.037,7.488,3.06,7.488,3.06l2.015,0.021
	c0,0,1.795,1.52,2.934,1.9s2.066,0.854,2.066,0.854s1.143,2.072,0.077,3.365s-2.675,2.635-3.675,4.102s0.772,3.663-1.168,6.709
	s-5.644,2.33-7.988,5.294s0.78,1.315-0.632,3.04s-2.471,1.973-3.096,3.168s0.153,2.423-2.026,3.006s-4.804-0.586-4.804-0.586
	s2.762,3.153,1.151,4.081s-4.939,1.055-4.939,1.055s0.361,2.134-0.463,2.247s-2.271-0.242-2.271-0.242s1.287,0.818,0.083,2.489
	s-2.407,2.481-2.407,2.481l1.539,1.382c0,0-3.016,2.266-3.126,2.846s3.233,4.649,3.233,4.649s-5.915,0.115-7.903-2.797
	s0.016-14.6,0.016-14.6s2.398-2.266,2.182-4.596s0.365-4.846,0.365-4.846s1.07-4.699,0.89-7.09s-5.337-5.826-5.337-5.826
	l-5.803-10.229l1.307-2.113c0,0-1.142-0.42-0.79-1.271s3.743-5.199,3.743-5.199l-1.022-4.584c0,0-1.459-1.502-2.481-0.169
	s-4.382-1.267-4.382-1.267s-1.226-3.777-3.028-3.947s-2.949,0.296-3.65-0.235s-1.107-1.622-2.733-2.17s-1.135,1.958-6.058-0.779
	s-5.079-3.745-5.079-3.745l-0.016-1.009l-7.886-10.246l-1.435,0.526l5.39,8.323l-5.258-4.325l-2.603-5.56l-3.344-1.849
	c0,0-3.588-5.087-3.582-6.839s0.649-3.665,0.259-5.196s1.317-1.367,1.317-1.367s-3.775-2.711-6.415-4.789
	s-17.308-7.671-17.308-7.671l-1.997-0.226l0.729,0.685l-3.791,0.149l1.342-1.065l-3.562,1.633l0.332,0.726l-14.489,5.401
	l10.865-5.481l-4.869-0.526l-0.307-1.099l-2.233,0.022l-1.372-1.42l3.384-1.441l1.52-0.482l-0.223-0.969l-5.546-0.449l2.149-1.235
	l4.099-0.025L193.991,221.632z"/>
<path style="fill:none;stroke:#06FC1D;stroke-miterlimit:10;" d="M379,325l3.334-0.833l3.666-0.333c0,0,6.001-4.333,6.334-5.5
	s-0.334-2.5-0.334-2.5l2.834-1.5L394,310.5l6.167-4.833L399.834,301L398,296.167c0,0,4.166-6.5,5.5-7.333s3.834-2.5,5.167-5.667
	s1.833-4.667,1.833-4.667l-6.333,1.333l-2-1.167l0.667-0.667l-4.167-3.167L398,272.167l-1.666-0.5L396,268.333l-0.833-1.5
	l-3.5-6.333l2,1.833l0.667-2.333l0.166,2.333l1.834,2.5l2,2.167l0.166,2.667l2.167,2.5l1.667,1.833l0.5,3l1.166,0.5l3.5-1.167
	l4.334-1.833l0.666-1l1.834-0.667l1.333-0.833l0.833-0.833l1.167-1.667l1.667-1.167L418,266.667l-1.833-0.833l-0.333-1.667
	L413.167,266l-2.333-0.167l-1.167-1.667l-0.333-0.667l-1.834-2.667l1.167-0.833l1.333,0.333l0.667,1.5l1.667,1.333h0.833L414,263.5
	l2.334-0.5l0.666,0.833l0.667,0.333l0.833,0.5h3.5l1.667,0.333h1.833l0.667,0.333l0.667,0.667l1.833,1.333l1.5,0.167l-1.833,0.667
	l1.166,1h1.667l0.833-1.5l0.167,2.667l1.167,4l3,7.667H438l0.5-1.667l1-0.833v-1l0.5-1.333l-0.5-2.5l1-0.333l1.834-2.167
	l2.166-1.333l1.5-0.667l0.5-1.167l1.834-0.333l2.166-0.5l0.167-0.833l0.667,0.333v0.833l2,2.167l0.833,2.167l-0.833,1l1.333,0.5
	l1.667-0.5v-1l1.333,2.833l0.667,3.333v2.5l0.833,1.833l0.833,1.333l0.5,2.167l1.5,1.5l2,0.5l-1-1.667l-0.166-1.667L461,283.667
	l-1.166-1.333l-0.5-1.167l-0.167-2.667l0.667-1.667l1.5,0.833L462.5,279l1.334,0.667l0.5,0.667L464,281.5l2.167-1.333l2-1
	c0,0,1.333-0.5,0.333-2.833s-3-4-3-4s-0.999-1.5,0.334-2.167s3-1.167,3-1.167l0.833,0.833l1.167-1.333c0,0,2.499-0.5,3.666-1
	s4.001-2.833,4.834-4.333s1.5-3.833,1.5-3.833l-1.167-3L478.5,255.5l3.334-2.333l-1.667-0.833l-1.833,0.5L478,252l-1-0.833
	l1.667-0.333L480,250l1.167-0.833l0.833,0.5l-0.666,0.833l3-0.167l0.166,1.333l1.834,1l-0.667,1l0.167,1.167v1l2.833-0.667l0.167-2
	l-1.167-1.667l-0.5-1.167l1.833-1l1.167-2.167l1.667-0.167l1,0.333l6.333-4.833l0.833-3l0.834-2.167L498.667,236l-1,0.167l-1,0.167
	L496,235.667l-1.333-0.333l6.167-3.667l3.5-0.5l5-0.667l2.666,0.167h1.167L514,231l1.167-1.167l2-1.333h3l-0.667,0.667l0.667,0.167
	l1.5-0.5l1-1.167l1.5,0.167l-1,1.333l-2.833,1.5l-2.167,1.5l-2,0.833l-0.833,1.167l0.333,3l0.333,2.167l2.167-1.667l1.167-0.667
	l0.833-1.5h1l0.167-1.5l1.333-0.5v-0.833l-1.167-0.5l1.334-1.333l1.833-0.667l2-0.333l2.167-0.167l1.166,0.667l1.834-1.5l5-0.833
	h2.666l-3.666-2.833L539.5,225v-4l-9.5-0.5l0.334,0.833H529l-1.5-0.667H521l-1.666-0.5l-7.334-1l-3.333-1.333l-9.167-0.167
	l0.5,0.833l-2.666,0.5l-4.834-0.667l-1,0.5l-1,0.5l-2.833-1.5l1.333-0.667l-5.666-1l-0.5,0.833l-4.667-0.5l-5,0.333l-3-0.5
	l-4.833,0.833L473,215l-1.5-1.333l-4.666-0.167l-2.334-0.833l-4.166,0.667L459,213.667h-3.166l-9.667,1.667H445.5l1.5,1.167
	l-6.833,0.5l3.167,1.5l0.5,1.667l-1.834-0.5l-1.5-1.167l-3.5-0.333l0.834,1l-3-0.667l-1.667,0.333l0.5,0.833l-0.333,0.667l3,0.667
	l1.333,0.333L437.5,222.5l-1.166-0.5l-2-0.5l-0.5,0.833l-2.334,1.5h-2.666l2.833-1l1-1.333L432,220.333l-0.5-1.167l0.834-0.833
	l-0.5-0.667l-1.5-0.167H428.5l-1.666,1.333V220l1.666,1.5h-1.166l-3.334-1l-3.5,0.333L418.834,220L418,219.833l1.667,1.667L419,222
	l-1.5-0.5H416h-2.5l-3.5,0.667L407.834,223l-1.167,0.167L404.834,223l1.5-1l-2.667-0.5l-0.5,1.833l-1.333,0.333l-2.334,1.167l0.5,1
	h-1.333L396.5,225l0.834,1.333h-1.5l-1.5-1.167l-0.834-0.833l-2.166-1.5l5.333,1l4-0.833l-2.167-1.167c0,0-2.166-1-3.166-1
	s-3.5-0.167-3.5-0.167l-3-0.5l-3-0.667h-2.167l-3.333,0.667l-3.5,1.5L375,222l-4.333,3.833l-2.167,1l-2.833,0.833l-1.167,0.5
	l0.334,1.333l0.5,1.833l1.166,0.5l1.334-0.167l2.333-0.667l0.833,0.5l1.167,2.167l0.833,1l2.334-1.333l0.833-1.833l1-0.833
	l0.833-0.333l-1.5-1.667l2.5-2l1.834-0.667l1-1.5l3.333,0.5L381,227.5v2.167l2,0.5l4.167-0.333l2.333,0.667l-6.666,0.5l1.333,0.833
	l-0.5,0.833l-0.833,0.5l-1.667-0.5l-0.667,1.667l0.5,0.833l-2.5,0.667l-4.333,0.333l-1.333-0.333l-2.5,0.333L369,235.333l1-1.5
	l-0.333-1L368,233.667l-0.333,1.833l0.833,0.667l-2.166,0.5L364.5,237l-0.833,1.333L362,239.167l-1.166,0.167l-0.167,0.833l-1,0.333
	l-0.833,0.333l-1.167-0.5l0.167,1.333H355l2.5,1l0.667,1.5v1L358,246l-0.333,0.833h-2.833l-3.167-0.5l-1,0.833v1.5v1.667l-0.667,1
	l0.667,0.833l-0.167,1l1.833-0.167l1.167,1.167l0.125-0.106l1.042-0.894l2,0.167l1-0.5l0.833-0.167l0.833-0.833l-0.167-1.167
	l1.667-1.333l1.833-0.833v-1.167l2.833-0.167l2.334-1l1.5,0.167l1,1.333l2,1.167l2,1l1,0.667l-1.667,1.833l-1.333-0.167l2.333,0.833
	l1.833-1.833L376,250l1.667,0.333l-4.833-3.5l-1-1l0.333-0.833l1.833,0.5l2.167,2l2.5,0.167l0.5,1.5l-0.333,1.167l1,1.5l1.833,1
	l1.833-0.167l-1.5-2.333l1.334-0.5h1l1.833-0.167l1.167-0.5v-1.5L388,246.5l1-1l1.667-1.833l1.667,0.333l0.666,0.167L392.167,245
	l1,0.333L392.334,246l3.5-0.833l-1.5-0.833l2.732-0.84l1.601-0.493l-1.333,1.667l-0.667,0.833l2.833,1.667l1.834,1.667L397.5,249.5
	c0,0-2.833-1.333-3.833-1.333s-3.333,1.5-3.333,1.5L388.167,249l-1,1.333L385.834,251l1,1.833l1.666,0.833l1.334,0.5l1-0.333
	l1,0.167l1.833,0.333l1.833-0.667l0.167,2l-1.167,1.667l-2,1.833l-1.5-0.5l-1.666,0.667h-1.5l-3-0.5l-2.167-1l-2.5-0.333
	l-0.833,2.167l-1.167,0.167l-3.333-1.167l-0.334-0.833l-2.166-0.333l-2.5-0.667v-1l0.5-0.833l-0.667-1.167l-1.5-0.667H366
	l-1.833,0.167l-1.833,0.5h-2l-2,0.833l-1.5,0.167L355.167,255l-1.833-0.167L353,256.167l-3,2V260l-1.333,1.167l-1.5,1l-1,0.167V263
	L345,264v1.167l-1,1.667l-1.167,1v2l0.667,0.833V273l-0.833,1.833L342,275.667l0.833,1.333l0.167,0.833l2.167,1.333l0.667,1.333
	l1.333,2l1,1l3,1.5l1.333,0.5l2.5-0.5l2.667,0.667l2.5-1l2.5-0.833l1.667,0.167l0.666,1.5l0.5,0.833l2.834-0.333l1,1v2.167l-1,1.667
	l0.333,1.333l2.667,2.333l0.666,2.667l0.5,1.833l0.5,2.667v1.167L372,304l-0.666,2.334l0.166,2.166l1.167,2.334l1.167,2.5v2
	l1.333,1.666l0.667,2.667l1.166,1.667l0.834,1.166l-0.334,1.167L379,325z"/>
<polyline style="fill:none;stroke:#06FC1D;stroke-miterlimit:10;" points="498,325.5 498,326.5 498.834,326.167 499.5,327.334 
	499.5,328.167 501.5,328.334 503.167,328.334 504.334,328.334 506.167,329.167 507.834,328.167 509.334,327.834 510.834,324.5 
	512.334,321.834 513.167,318.5 511.334,314.834 510.334,313.334 509.334,312.5 508.167,310.834 506.334,310.167 504.667,305.834 
	504.5,305 503.334,304.834 502,301.167 500.834,303.667 501,305.334 500.334,306.834 499.334,308 494.834,305 496,303.167 
	493.5,302.334 492.5,301.834 491.834,302.5 490.167,302.667 489.334,303.834 488.834,304.667 487.334,305.167 486.334,304 
	484.5,304.834 483.834,306.334 483,307.5 482.334,307 481.667,307.5 481.667,309 479.334,310.167 478,310.334 476.167,310.834 
	474.834,311.834 473.667,312.834 473,315 473.334,318 474.334,319.667 475.334,321.5 475.334,323.5 474.334,324.167 476.667,325 
	479.167,324 483.167,324 484.5,322.334 487.167,322.334 490.834,321.5 492,322 493.5,322.334 495.167,325 496.667,323.5 
	497.334,322.834 497.5,324.834 496.667,325.5 "/>
<polygon style="fill:none;stroke:#06FC1D;stroke-miterlimit:10;" points="410.5,243 407.667,244.167 406.167,245.333 406.667,246.5 
	407.334,247.333 408.667,249.167 409.667,249.833 408.667,250.667 408.5,252 409.667,253 412.5,253.5 413.667,253.5 
	413.167,250.333 411.667,249.167 414.5,249.333 412.834,248 411.834,247.333 410.167,246 410.834,245 412.334,244.833 
	412.5,243.667 "/>
<polygon style="fill:none;stroke:#06FC1D;stroke-miterlimit:10;" points="340.333,226.167 343.333,226.167 345.667,225.5 
	343.333,223.667 339.5,224.167 338.5,225.167 335.833,224 337,225.5 338.5,226.333 "/>
<polygon style="fill:none;stroke:#06FC1D;stroke-miterlimit:10;" points="351,235.333 351,236 349.667,236 349.667,236.667 
	350.333,237.167 349,238.333 350.167,238.667 351.167,238.333 353.333,237.833 352.833,236.333 "/>
<polygon style="fill:none;stroke:#06FC1D;stroke-miterlimit:10;" points="354.5,231.833 356.333,231.667 355.167,232.5 357.667,233 
	356.167,234.333 357.167,234.333 358.5,235.667 359.167,236 359.667,237.667 361.167,237.333 360.334,238.333 359.833,239.167 
	358.5,239.167 357.333,239.167 355.667,239.167 354.667,240.167 356.167,238.167 354.333,238.167 356.167,237.167 355.167,237.167 
	356.667,236.333 356,235.333 355,235.333 354.333,235.333 354.333,234.167 353.5,234 353.333,232.833 "/>
<path style="fill:none;stroke:#06FC1D;stroke-miterlimit:10;" d="M179.5,374.667l23.167,0.666L192,373.167l14.333-0.667L204.5,371
	h6.667l-0.833-1.333l-8.833-1.834l12-0.5l-0.667-1.666c0,0,7.833-1,24-1s24.167,1.5,24.167,1.5l-4-2.834c0,0,17.667,0.667,22,0.667
	s12.833-0.5,12.833-0.5l0.833-1.667L291,359.5l1.333-0.167l0.333-1.833l10.167-4.333l-8,4.5l-0.667,0.666c0,0,5.5,3,4.833,4.167
	s-15.167,4.833-15.167,4.833l-4,0.167l3,1l-5.667-0.167L280.5,369H276l7.167,0.667l-2.833,0.5l11.333,1.333l7.333,2l13.833-1.333
	l-0.5,0.666l8.833-1.833l14.333-0.667l-12.167-1.833l14.833-2.667l5.5-0.333l1.333-2h-2.667l12.833-1.333l6.167-1l9.833,0.333
	l0.833-1.166l5.167,0.333h1.333l1,0.333l2.334-0.5l2.833,0.167l0.833,0.5l7-1L393,359l2,0.834l3.5,0.333l1-1.333l6.667-1.167
	l2,0.333v-1l1.833,0.667l-0.5-0.833l5.855,0.293l0.812,0.04L429,358.334l-2.333,1.833l1.667,0.5l-2,2.5l1.333-0.333L432,361l2.5-1
	l3.334-0.833l1.833-0.833l6.167-1.167l4.666-0.333h5l5.667-0.5l7.333,0.5h1.334l2.833-0.667l2.167,0.833l-1.5,0.5l11.833-0.833
	l2.667,0.5l2-0.833l4.166,0.5l10.334,0.333l-0.667,0.667h1.667l0.833,0.666l4.5,0.334l2.667-0.167l6.333,1.333l2,1.167l6.333,0.167
	l2.167,0.666l-1.667,1l-3.666,1l-1,0.334l1,0.666l-4,0.334l1.666,2.333l2.167,0.5l2.333,0.5L519.834,370l0.5,1.667L525,373
	l7.834,1.167l6.666,0.167"/>
<path style="fill:none;stroke:#06FC1D;stroke-miterlimit:10;" d="M408.5,302.834l1.334,2.666h-1l0.666,1.334l-3.333,8.333
	c0,0-1.333,0.833-2.333,0s-1.334-2.833-1.334-2.833l1.334-2l-0.167-2.834v-0.833c0,0,2.667-0.499,3.167-1.333
	S408.5,302.834,408.5,302.834z"/>
<polygon style="fill:none;stroke:#06FC1D;stroke-miterlimit:10;" points="300.167,242.167 301.833,240.833 303.5,238.5 
	302.833,240.667 304,240.667 305.333,241.5 305.667,242.333 306.833,242.667 306,243.5 305,242.833 303.833,242.333 
	301.333,242.333 "/>
<polygon style="fill:none;stroke:#06FC1D;stroke-miterlimit:10;" points="293.833,246.833 293.333,245.667 296.167,244.833 
	295.167,244.667 295.5,244 297.167,243.833 297.167,244.5 298.167,244.5 299,243.167 299.333,244.167 299.333,245.5 
	296.333,245.667 "/>
<polygon style="fill:none;stroke:#06FC1D;stroke-miterlimit:10;" points="275.167,268.167 277.833,267.167 280.333,268 
	281.333,268.333 281.697,268.467 282.288,268.685 284.5,269.5 281.5,270.167 282.333,269.333 280.833,269 277.5,267.833 "/>
<line style="fill:none;stroke:#06FC1D;stroke-miterlimit:10;" x1="281.667" y1="272" x2="283" y2="272.333"/>
<polygon style="fill:none;stroke:#06FC1D;stroke-miterlimit:10;" points="285,271.667 287.5,271.833 286.333,270.167 291,271.333 
	289.167,271.833 288,272.5 "/>
<line style="fill:none;stroke:#06FC1D;stroke-miterlimit:10;" x1="292.5" y1="272.333" x2="293.667" y2="272.333"/>
<line style="fill:none;stroke:#06FC1D;stroke-miterlimit:10;" x1="204.5" y1="271.167" x2="203.5" y2="270.5"/>
<line style="fill:none;stroke:#06FC1D;stroke-miterlimit:10;" x1="202.5" y1="269.333" x2="200.667" y2="268.5"/>
<polygon style="fill:none;stroke:#06FC1D;stroke-miterlimit:10;" points="440.333,284.167 439.167,283 439.5,280.667 
	441.333,282.833 "/>
<polygon style="fill:none;stroke:#06FC1D;stroke-miterlimit:10;" points="455,285 456.667,285.667 458.333,286.5 459.667,288 
	460.667,288.167 462.833,290.167 463.833,292.667 465,292.834 465.167,294.334 465,295.667 464,295.667 461.667,294.167 
	460.167,292.5 459.167,290.667 458.167,288.667 456.833,287.833 456.333,286.833 "/>
<polygon style="fill:none;stroke:#06FC1D;stroke-miterlimit:10;" points="468.833,290 468.667,288.667 470.167,288.667 
	470.667,287.667 472.5,287.167 473.833,286 475,285.333 476,284 476.667,283.833 478.5,285 477.5,285.5 476.833,286.667 
	477.333,288 478.167,289.167 477.167,289.667 477,291.167 475.833,291.667 475.667,294 474,294.334 473.333,293.667 
	472.333,293.667 471.333,293.5 470,293 469.833,291.667 469.167,291.5 "/>
<polygon style="fill:none;stroke:#06FC1D;stroke-miterlimit:10;" points="465,297.167 465.833,296.334 467,296.334 468,296.834 
	469.167,297.167 470.333,297 471.667,297.5 472.167,298.167 473.833,298.167 470.667,298.167 468.667,298 467.333,298 "/>
<line style="fill:none;stroke:#06FC1D;stroke-miterlimit:10;" x1="475" y1="298.834" x2="476.5" y2="298.834"/>
<polygon style="fill:none;stroke:#06FC1D;stroke-miterlimit:10;" points="490.333,291.334 491.667,290.5 493.333,291.167 
	493.333,292.5 492,292.5 491.333,291.667 "/>
<polygon style="fill:none;stroke:#06FC1D;stroke-miterlimit:10;" points="491.5,293.167 494,293 494.667,294 495.667,292.667 
	496.333,292.667 497.167,291.667 501.333,293.667 504.333,294.334 505.333,295.667 506.833,296.667 505.833,297.167 507.667,299 
	509.667,300.5 507,300.5 505.333,298.334 503.333,297.834 502.167,298.334 502.833,299.5 500.333,299.5 499.5,298.334 
	497.833,298.5 497.167,298.167 498.5,297.667 497.5,296 495.833,295.5 493.5,294.334 492.667,293.834 491.833,294.334 "/>
<polygon style="fill:none;stroke:#06FC1D;stroke-miterlimit:10;" points="504.333,331 505.5,331.334 507.5,331 507.167,332.334 
	506.167,333.667 504.833,333 "/>
<polygon style="fill:none;stroke:#06FC1D;stroke-miterlimit:10;" points="468.5,270.667 469.5,270.5 470.333,270.667 469.333,272 
	"/>
<polygon style="fill:none;stroke:#06FC1D;stroke-miterlimit:10;" points="502.167,236.167 502.5,238 503.833,241.167 
	502.333,241.333 503,243.667 501.833,243.667 501.333,242.333 501.5,240.667 502.167,239.333 501.333,238.333 "/>
<polygon style="fill:none;stroke:#06FC1D;stroke-miterlimit:10;" points="489.5,257 490.5,256.667 491.167,257.5 490.5,258.5 
	489.667,258.667 "/>
<polygon style="fill:none;stroke:#06FC1D;stroke-miterlimit:10;" points="500.833,244.833 502.333,245.667 503.5,246.167 
	504.333,246.333 504.667,247.333 503.333,247.333 502.833,248 501.5,247.833 500.333,247.833 499.5,248.667 499.5,247.667 
	501.333,247 501.167,245.667 "/>
<polygon style="fill:none;stroke:#06FC1D;stroke-miterlimit:10;" points="499.667,249.333 500.5,249.333 501.167,250.5 501,251.833 
	500.333,252 500.5,253.833 500,254.833 497.667,254.833 496.833,254.833 495.333,256.167 495,255.167 493,255.333 491.667,255.667 
	493.5,254.5 495.5,254.333 496.167,253.333 497.667,253.167 498.667,252.333 499.167,251 "/>
<polygon style="fill:none;stroke:#06FC1D;stroke-miterlimit:10;" points="481.167,265.167 480.667,266.833 480.667,268.167 
	479.667,266.5 "/>
<polygon style="fill:none;stroke:#06FC1D;stroke-miterlimit:10;" points="480.5,271.667 481.5,272.667 482,273.667 480.833,275.167 
	480.333,276.167 479.167,274 480,273.833 "/>
<polygon style="fill:none;stroke:#06FC1D;stroke-miterlimit:10;" points="483.833,282 484.667,281.167 485.333,280.5 486.167,282 
	486,283.5 484.667,283.333 484.833,284.5 483.333,283.667 483.333,283 482.333,282.667 481.5,283.333 482,281.833 "/>
<line style="fill:none;stroke:#06FC1D;stroke-miterlimit:10;" x1="476.5" y1="281.667" x2="479.167" y2="279.667"/>
<polygon style="fill:none;stroke:#06FC1D;stroke-miterlimit:10;" points="526,336 528.5,334 530.5,332.667 531.5,330.667 
	532.333,331.5 533.333,331.5 533.333,332.5 531.833,333.334 532.5,334.167 530.833,334.334 529,337 "/>
<polygon style="fill:none;stroke:#06FC1D;stroke-miterlimit:10;" points="534.333,328.5 532.167,325 534,325.834 534.667,327.334 
	536.5,328.167 537.833,328 537.167,329.167 536.167,329.334 535.833,330.834 534.667,331.5 534.667,330.5 533,329.667 "/>
<polygon style="fill:none;stroke:#06FC1D;stroke-miterlimit:10;" points="234,218.167 235.666,216.667 234.5,215.833 244.5,216.833 
	239.166,217.833 237.166,219.167 "/>
<polygon style="fill:none;stroke:#06FC1D;stroke-miterlimit:10;" points="240.333,218.5 244.5,216.833 245.333,217.5 247,217.5 
	247.833,217.5 248,218.167 249.833,217.333 250.833,218.333 252.166,218.167 251,216.333 253.833,217.167 254.333,218.5 
	254.833,219.333 258.166,220.333 256.833,220.667 257.666,221.333 253.5,221 250.333,221.5 245.666,220.667 242.5,220.167 
	247.833,220 241.166,219.333 243.166,219 "/>
<polygon style="fill:none;stroke:#06FC1D;stroke-miterlimit:10;" points="237.333,214 243.333,213.333 240,214.333 "/>
<polygon style="fill:none;stroke:#06FC1D;stroke-miterlimit:10;" points="245.5,212.167 248.5,211.667 247.833,212.667 "/>
<polygon style="fill:none;stroke:#06FC1D;stroke-miterlimit:10;" points="297.833,207.833 283.833,210.833 281.166,212.333 
	278,212.667 281,213.5 270.666,213.167 268,213.833 270.833,214.833 279.833,215.5 267.5,215.5 267.5,214.5 263.166,213.5 
	266.666,213.167 275.166,212.167 272,211.667 276.166,211.667 273.666,209.833 278.5,210.5 276.666,209.667 281.333,208.833 
	270.5,209.167 268.333,208.333 282.333,207.333 "/>
<polygon style="fill:none;stroke:#06FC1D;stroke-miterlimit:10;" points="266.333,209.333 268.666,209.833 270.833,210.333 
	272.5,210.333 273.5,210.667 269.166,212.167 265.333,211.167 267.5,211 262.666,209.833 "/>
<line style="fill:none;stroke:#06FC1D;stroke-miterlimit:10;" x1="254.333" y1="211" x2="260.333" y2="212.5"/>
<polygon style="fill:none;stroke:#06FC1D;stroke-miterlimit:10;" points="244.166,213.667 250.166,215.167 249.333,213.667 
	251.666,214.167 253.833,214.667 245.5,215.5 242.5,214.833 "/>
<polygon style="fill:none;stroke:#06FC1D;stroke-miterlimit:10;" points="255.333,213.833 259.166,213.833 261.666,214.167 
	261.333,215 258.5,215 "/>
<polygon style="fill:none;stroke:#06FC1D;stroke-miterlimit:10;" points="257,217.5 259.333,217.5 258.333,216.5 262,216.667 
	261.333,217.167 263,217.667 260.833,218.5 260.166,219.167 "/>
<line style="fill:none;stroke:#06FC1D;stroke-miterlimit:10;" x1="263" y1="214.833" x2="265.5" y2="215.167"/>
<polygon style="fill:none;stroke:#06FC1D;stroke-miterlimit:10;" points="264.833,216.167 268.5,216.667 265.666,217.5 
	264.833,218.5 267.5,220.333 263.833,220.333 262.833,219.167 "/>
<polygon style="fill:none;stroke:#06FC1D;stroke-miterlimit:10;" points="270,218 272.666,216.833 273.833,216.667 272.833,218 
	274.666,219.167 274.166,217.5 276,217 278.666,217 278.666,218 277.833,218.5 280.166,217.667 282.333,217.667 284.833,218.833 
	287.5,218.667 288.833,219.333 287.666,219.5 290.166,219.5 292,220.333 292.166,221.167 291.166,221.667 293,221.667 
	295.833,222.667 297.5,223.667 296.333,224.833 295.166,225 292.666,224 291.166,224.5 294.833,226.333 294.833,227.333 
	290.833,226.5 293.5,228 288.666,228 286.833,226.5 285.166,225.833 281.833,225.667 285.666,224.667 287.166,222.667 283.333,221 
	279.833,220.167 276.5,220.5 271.666,219.833 269.833,219.333 272.166,219.167 "/>
<polygon style="fill:none;stroke:#06FC1D;stroke-miterlimit:10;" points="277.666,221.667 277,222.167 278,223.167 276.333,223.833 
	274.666,223.5 273,222.333 274.333,221.167 "/>
<polygon style="fill:none;stroke:#06FC1D;stroke-miterlimit:10;" points="274.333,224.667 276,225.667 277.833,225.833 
	278.833,226.333 276.333,226.333 274.666,226.833 273,226.5 272.166,226.5 273.333,225.333 "/>
<line style="fill:none;stroke:#06FC1D;stroke-miterlimit:10;" x1="275.666" y1="227.833" x2="277.166" y2="227.833"/>
<line style="fill:none;stroke:#06FC1D;stroke-miterlimit:10;" x1="282.333" y1="222.5" x2="284" y2="222.5"/>
<polygon style="fill:none;stroke:#06FC1D;stroke-miterlimit:10;" points="370.666,210.667 374,210.5 375.666,211.667 
	372.666,211.667 "/>
<polygon style="fill:none;stroke:#06FC1D;stroke-miterlimit:10;" points="374,213.167 376.333,213.167 378.666,211.833 
	380.333,212.167 381,213 383.666,212.667 379.666,211 375.833,210.333 377.333,211.667 "/>
<line style="fill:none;stroke:#06FC1D;stroke-miterlimit:10;" x1="405" y1="209.833" x2="410.333" y2="209.667"/>
<line style="fill:none;stroke:#06FC1D;stroke-miterlimit:10;" x1="414.166" y1="209.333" x2="418.5" y2="208.5"/>
<line style="fill:none;stroke:#06FC1D;stroke-miterlimit:10;" x1="415.666" y1="210.167" x2="424.333" y2="209.667"/>
<polygon style="fill:none;stroke:#06FC1D;stroke-miterlimit:10;" points="411,218.5 417.166,214.333 420.833,213.167 428.333,213.5 
	419.333,214.833 415.166,217 414.666,218 416.833,219.667 "/>
<polygon style="fill:none;stroke:#06FC1D;stroke-miterlimit:10;" points="450.333,209.667 454.833,209 457,209.667 "/>
<polygon style="fill:none;stroke:#06FC1D;stroke-miterlimit:10;" points="451,210.5 459,210.333 458.166,211.167 "/>
<polygon style="fill:none;stroke:#06FC1D;stroke-miterlimit:10;" points="459.666,211.833 462,210.833 465,211.5 "/>
<polygon style="fill:none;stroke:#06FC1D;stroke-miterlimit:10;" points="496.666,214.5 499.666,214.5 501.333,214 504.666,214.833 
	500,215.167 "/>
<line style="fill:none;stroke:#06FC1D;stroke-miterlimit:10;" x1="506.666" y1="215" x2="509.666" y2="215.167"/>
<polygon style="fill:none;stroke:#06FC1D;stroke-miterlimit:10;" points="306.167,370.167 309.667,369.667 309.5,368.334 
	316.333,368.5 314.5,368.834 315.833,369.334 314.667,370.667 310.5,370.667 "/>
<polygon style="fill:none;stroke:#06FC1D;stroke-miterlimit:10;" points="479.5,295.5 479,293.667 477.666,293.834 479,291.334 
	479.5,289.667 481.666,289.667 484.166,289.667 480.5,290.167 479.666,291.667 482.166,291.334 480.333,292.5 482.333,294.667 
	480.666,294.334 479.5,292.834 "/>
<line style="fill:none;stroke:#06FC1D;stroke-miterlimit:10;" x1="483.166" y1="300.667" x2="486.666" y2="299"/>
<polyline style="fill:none;stroke:#06FC1D;stroke-miterlimit:10;" points="508.166,295.667 510,295.834 511.666,294.334 "/>
<polygon style="fill:none;stroke:#06FC1D;stroke-miterlimit:10;" points="481,278.167 481.333,277.167 482.333,277.833 "/>
<polygon style="fill:none;stroke:#06FC1D;stroke-miterlimit:10;" points="481.5,279.833 482,278.5 483.333,279.833 "/>
<line style="fill:none;stroke:#06FC1D;stroke-miterlimit:10;" x1="487.166" y1="293.167" x2="489.833" y2="293.667"/>
<line style="fill:none;stroke:#06FC1D;stroke-miterlimit:10;" x1="487.166" y1="290.5" x2="488" y2="287.833"/>
<line style="fill:none;stroke:#06FC1D;stroke-miterlimit:10;" x1="514.166" y1="296" x2="515.166" y2="297.167"/>
<line style="fill:none;stroke:#06FC1D;stroke-miterlimit:10;" x1="523.833" y1="310.667" x2="526.333" y2="312.667"/>
<line style="fill:none;stroke:#06FC1D;stroke-miterlimit:10;" x1="478.333" y1="299.334" x2="482.5" y2="299.334"/>
<line style="fill:none;stroke:#06FC1D;stroke-miterlimit:10;" x1="516.166" y1="297.167" x2="517" y2="297.667"/>
<line style="fill:none;stroke:#06FC1D;stroke-miterlimit:10;" x1="518" y1="298.167" x2="519.166" y2="298.667"/>
<line style="fill:none;stroke:#06FC1D;stroke-miterlimit:10;" x1="519.333" y1="299.834" x2="521.666" y2="301.334"/>
<line style="fill:none;stroke:#06FC1D;stroke-miterlimit:10;" x1="526" y1="305.334" x2="526.833" y2="306.5"/>
<path style="fill:none;stroke:#0091F4;stroke-miterlimit:10;" d="M179.5,374.435c0,0,0.5-116.435,0-173.935"/>
<path style="fill:none;stroke:#0091F4;stroke-miterlimit:10;" d="M507.308,358c10.73,0,21.462,0,32.192,0"/>
<path style="fill:none;stroke:#0091F4;stroke-miterlimit:10;" d="M428.475,358c3.946,0,7.894,0,11.84,0"/>
<path style="fill:none;stroke:#0091F4;stroke-miterlimit:10;" d="M296.492,358c35.626,0,71.253,0,106.88,0"/>
<path style="fill:none;stroke:#0091F4;stroke-miterlimit:10;" d="M179.5,358c37.227,0,111.681,0,111.681,0"/>
<path style="fill:none;stroke:#0091F4;stroke-miterlimit:10;" d="M531.254,335.461c2.748,0.01,5.497,0.022,8.246,0.039"/>
<path style="fill:none;stroke:#0091F4;stroke-miterlimit:10;" d="M293.201,335.5c46.16,1.411,92.35,1.072,138.521,0.602
	c31.112-0.317,62.225-0.7,93.34-0.655"/>
<line style="fill:none;stroke:#0091F4;stroke-miterlimit:10;" x1="179.5" y1="335.5" x2="284.433" y2="335.5"/>
<path style="fill:none;stroke:#0091F4;stroke-miterlimit:10;" d="M510.183,313c9.772,0,19.545,0,29.317,0"/>
<path style="fill:none;stroke:#0091F4;stroke-miterlimit:10;" d="M411.761,313c20.476,0,40.951,0,61.427,0"/>
<path style="fill:none;stroke:#0091F4;stroke-miterlimit:10;" d="M395.386,313c2.043,0,4.086,0,6.129,0"/>
<path style="fill:none;stroke:#0091F4;stroke-miterlimit:10;" d="M315.996,313c19.043,0,38.087,0,57.131,0"/>
<path style="fill:none;stroke:#0091F4;stroke-miterlimit:10;" d="M179.5,313c36.5,0,73.5,0,109.458,0"/>
<path style="fill:none;stroke:#0091F4;stroke-miterlimit:10;" d="M485.156,290.15c18.115,0.068,36.229,0.18,54.344,0.35"/>
<path style="fill:none;stroke:#0091F4;stroke-miterlimit:10;" d="M463.559,290.089c1.626,0.003,3.251,0.007,4.877,0.011"/>
<path style="fill:none;stroke:#0091F4;stroke-miterlimit:10;" d="M402.246,290.092c18.348-0.032,36.694-0.041,55.042-0.014"/>
<path style="fill:none;stroke:#0091F4;stroke-miterlimit:10;" d="M310.571,290.379c19.19-0.096,38.38-0.166,57.57-0.211"/>
<line style="fill:none;stroke:#0091F4;stroke-miterlimit:10;" x1="179.5" y1="290.5" x2="279.008" y2="290.5"/>
<path style="fill:none;stroke:#0091F4;stroke-miterlimit:10;" d="M474.666,268c21.611,0,43.223,0,64.834,0"/>
<path style="fill:none;stroke:#0091F4;stroke-miterlimit:10;" d="M418.895,268c3.021,0,6.042,0,9.063,0"/>
<path style="fill:none;stroke:#0091F4;stroke-miterlimit:10;" d="M262.039,268c26.957,0,53.914,0,80.871,0"/>
<path style="fill:none;stroke:#0091F4;stroke-miterlimit:10;" d="M179.5,268c23.364,0,46.728,0,70.092,0"/>
<path style="fill:none;stroke:#0091F4;stroke-miterlimit:10;" d="M505.355,245.315c11.382,0.052,22.763,0.113,34.145,0.185"/>
<path style="fill:none;stroke:#0091F4;stroke-miterlimit:10;" d="M495.6,245.273c1.626,0.007,3.252,0.014,4.878,0.021"/>
<path style="fill:none;stroke:#0091F4;stroke-miterlimit:10;" d="M300.39,245.27c19.058-0.064,38.117-0.114,57.175-0.144"/>
<line style="fill:none;stroke:#0091F4;stroke-miterlimit:10;" x1="179.5" y1="245.5" x2="235.388" y2="245.5"/>
<path style="fill:none;stroke:#0091F4;stroke-miterlimit:10;" d="M344.622,223c9.76,0,19.52,0,29.279,0"/>
<path style="fill:none;stroke:#0091F4;stroke-miterlimit:10;" d="M324.406,223c3.718,0,7.436,0,11.154,0"/>
<path style="fill:none;stroke:#0091F4;stroke-miterlimit:10;" d="M297.915,223c3.021,0,6.042,0,9.063,0"/>
<path style="fill:none;stroke:#0091F4;stroke-miterlimit:10;" d="M279.79,223c1.859,0,3.718,0,5.577,0"/>
<path style="fill:none;stroke:#0091F4;stroke-miterlimit:10;" d="M179.5,223c5.449,0,10.898,0,16.347,0"/>
<path style="fill:none;stroke:#0091F4;stroke-miterlimit:10;" d="M494.675,325.688c0.187,10.406,0.248,20.815,0.185,31.223"/>
<path style="fill:none;stroke:#0091F4;stroke-miterlimit:10;" d="M494.875,257.146c-0.006,14.919-0.094,29.839-0.263,44.758"/>
<path style="fill:none;stroke:#0091F4;stroke-miterlimit:10;" d="M494.864,245.957c0.005,2.098,0.008,4.196,0.01,6.294"/>
<path style="fill:none;stroke:#0091F4;stroke-miterlimit:10;" d="M494.5,200.5c0.08,5.828,0.146,11.655,0.201,17.483"/>
<path style="fill:none;stroke:#0091F4;stroke-miterlimit:10;" d="M449.5,269.002c0.393,29.039,0.477,58.081,0.258,87.121"/>
<path style="fill:none;stroke:#0091F4;stroke-miterlimit:10;" d="M449.5,200.5c0.125,4.613,0.218,9.228,0.279,13.842"/>
<path style="fill:none;stroke:#0091F4;stroke-miterlimit:10;" d="M404.5,316.063c0.315,13.823,0.437,27.651,0.345,41.479"/>
<path style="fill:none;stroke:#0091F4;stroke-miterlimit:10;" d="M404.706,288.711c-0.055,5.819-0.123,11.637-0.206,17.456"/>
<path style="fill:none;stroke:#0091F4;stroke-miterlimit:10;" d="M404.5,200.5c0.104,7.181,0.186,14.362,0.246,21.543"/>
<path style="fill:none;stroke:#0091F4;stroke-miterlimit:10;" d="M359.726,285.559c0.203,25.131,0.2,50.264-0.015,75.396"/>
<path style="fill:none;stroke:#0091F4;stroke-miterlimit:10;" d="M359.606,249.621c-0.032,1.364-0.068,2.729-0.106,4.093"/>
<path style="fill:none;stroke:#0091F4;stroke-miterlimit:10;" d="M359.5,200.5c0.343,12.021,0.448,24.05,0.327,36.076"/>
<path style="fill:none;stroke:#0091F4;stroke-miterlimit:10;" d="M314.688,313.496c0.242,17.913,0.257,35.83,0.027,53.744"/>
<path style="fill:none;stroke:#0091F4;stroke-miterlimit:10;" d="M314.832,230.657c0.114,20.414-0.002,40.83-0.332,61.241"/>
<path style="fill:none;stroke:#0091F4;stroke-miterlimit:10;" d="M314.5,200.5c0.038,2.287,0.072,4.574,0.104,6.86"/>
<path style="fill:none;stroke:#0091F4;stroke-miterlimit:10;" d="M269.77,276.38c0.166,29.116,0.132,58.233-0.108,87.35"/>
<path style="fill:none;stroke:#0091F4;stroke-miterlimit:10;" d="M269.67,261.706c0.028,3.494,0.053,6.988,0.075,10.482"/>
<path style="fill:none;stroke:#0091F4;stroke-miterlimit:10;" d="M269.5,227.601c0,1.853,0,3.706,0,5.559"/>
<path style="fill:none;stroke:#0091F4;stroke-miterlimit:10;" d="M269.5,200.5c0,2.548,0,5.096,0,7.644"/>
<path style="fill:none;stroke:#0091F4;stroke-miterlimit:10;" d="M224.334,234.931C224,278,226,322,224.575,364.731"/>
<path style="fill:none;stroke:#0091F4;stroke-miterlimit:10;" d="M224.5,200.5c0,6.847,0,13.695,0,20.542"/>
</svg>
