<?xml version="1.0" encoding="utf-8"?>
<!-- Generator: Adobe Illustrator 15.0.2, SVG Export Plug-In . SVG Version: 6.00 Build 0)  -->
<!DOCTYPE svg PUBLIC "-//W3C//DTD SVG 1.1//EN" "http://www.w3.org/Graphics/SVG/1.1/DTD/svg11.dtd">
<svg version="1.1" id="svg3157" xmlns:svg="http://www.w3.org/2000/svg"
	 xmlns="http://www.w3.org/2000/svg" xmlns:xlink="http://www.w3.org/1999/xlink" x="0px" y="0px" width="300px" height="278.59px"
	 viewBox="0 0 300 278.59" enable-background="new 0 0 300 278.59" xml:space="preserve">
<g>
	<path id="love" fill="#EE2722" d="M161.951,10.074c5.854-0.39,11.145,0.755,16.438,3.771c0.699,0.39,2.939,1.742,3.527,2.262
		c0.699,0.65,5.572,4.473,6.523,5.721c0.477,0.598,5.123,6.215,5.123,6.215s4.426-4.707,5.209-5.514
		c1.344-1.325,2.604-2.184,3.584-2.912c2.854-2.157,5.768-4.082,9.043-5.954c2.297-1.326,6.244-2.549,8.346-2.834
		c0.588-0.078,2.154-0.286,2.855-0.391c7.979-1.144,18.312,2.081,24.164,5.461c6.467,3.718,10.919,9.205,14.362,16.069
		c0.757,1.534,2.492,5.617,2.828,6.631c1.82,5.435,2.24,12.299,1.709,19.086c-0.812,10.557-5.349,21.4-10.192,27.953
		c-0.979,1.3-3.22,5.097-5.937,8.373c-9.043,10.816-22.429,24.287-35.896,32.815c-3.781,2.393-18.257,10.323-18.257,10.323
		s-15.093-8.425-17.5-9.907c-15.261-9.465-32.116-22.882-41.524-38.042c-3.275-5.278-7.055-10.608-9.211-17.058
		c-1.008-2.964-1.904-5.513-2.604-8.815c-1.651-7.774-1.147-16.928,1.063-24.183c0.98-3.224,2.437-6.683,3.836-9.438
		c5.068-9.855,14.477-16.33,26.852-18.853C158.256,10.464,160.132,10.178,161.951,10.074"/>
	<path id="I" fill="#FCFCFC" d="M98.729,10.308c0.672-0.052,1.371,0.286,1.848,0.364c3.556,0.649,5.04,1.612,6.439,4.446
		c3.024,6.059-0.84,11.545-6.076,12.688c-5.543,1.196-12.879-1.689-15.651,2.548c-1.82,2.782-0.784,11.441-0.756,15.237
		c0.028,4.655-0.056,9.127,0.224,13.782c0.141,2.132-0.14,4.55,0.141,6.604c0.195,1.561-0.196,3.198-0.057,4.577
		c0.393,3.432,0.477,7.385,0.364,11.155c-0.168,5.07,0.112,9.673,0.056,14.509c-0.056,3.146-0.392,6.397,0.028,9.569
		c0.252,1.689,0.644,3.691,1.456,4.862c4.061,5.694,16.576-1.144,20.859,5.514c0.309,0.493,0.672,0.962,0.869,1.56
		c0.084,0.312,0.139,0.572,0.223,0.936c0.925,3.927-0.531,7.411-2.939,8.997c-0.336,0.208-0.867,0.521-1.176,0.624
		c-2.548,0.91-6.664,0.885-9.996,0.599c-4.62-0.416-8.904,0.025-13.216-0.338c-4.116-0.312-9.128-0.442-13.58,0
		c-3.892,0.416-8.399,0.468-12.265,0.702c-1.848,0.104-3.527,0.571-5.543,0.208c-2.604-0.442-4.873-1.742-5.992-3.719
		c-2.1-3.718-1.428-9.179,1.736-11.337c0.867-0.572,1.987-0.779,3.135-1.118c6.021-1.872,13.832,1.872,17.024-3.406
		c2.044-3.354,0.505-11.961,0.868-16.694c0.309-4.186-0.027-9.309-0.141-13.235c-0.168-6.006-0.223-20.62-0.223-20.62
		c-0.225-6.188,0.223-12.532-0.225-18.539c-0.168-2.418,0.309-4.576,0-6.995c-0.168-1.3-0.504-2.601-1.092-3.536
		c-2.437-3.875-11.34-1.457-16.184-2.081c-2.353-0.286-4.089-1.612-5.488-2.912c-1.793-1.638-2.856-5.539-1.82-8.685
		c0.309-0.885,0.561-1.612,1.064-2.263c1.26-1.768,3.332-2.938,5.963-3.328c1.904-0.26,3.836-0.077,5.629,0
		c4.592,0.234,9.211,0.156,13.664,0.364C78.26,11.869,88.592,11.14,98.729,10.308"/>
	<path id="Y" fill="#FCFCFC" d="M204.82,149.553c2.574-0.26,6.047,0.078,7.896,1.066c2.239,1.248,3.248,3.406,3.808,6.369
		c0.925,4.941-2.379,8.479-6.047,9.52c-1.289,0.363-3.164,0.311-4.34,0.494c-1.682,0.26-3.837-0.809-5.545,0.129
		c-0.027,0.027-0.672,0.676-0.729,0.963c-0.168,0.676-0.111,1.689,0.504,2.574c0.141,0.182,3.725,5.928,5.125,8.396
		c5.039,8.738,10.107,17.422,14.979,26.211c0.645,1.17,1.008,1.354,1.008,1.354s2.24-3.094,2.549-3.641
		c3.275-5.67,6.637-11.311,9.996-17.031c1.399-2.393,2.969-4.732,4.115-7.357c0.252-0.572,4.116-7.385,4.368-7.568
		c0.308-0.26,0.505-0.83,0.699-1.246c0.841-1.717,0.112-2.549-1.567-2.836c-1.371-0.232-3.08,0.104-4.172,0.287
		c-1.345,0.182-3.472-0.234-4.814-0.416c-5.068-0.703-8.457-5.852-6.664-11.391c0.672-2.08,2.574-4.238,4.73-4.811
		c5.096-1.354,11.088,0.182,16.575,0.104c6.496-0.104,13.664-0.025,19.629-0.053c6.244-0.025,11.816-1.352,18.199-0.623
		c2.465,0.285,4.593,1.689,5.74,3.354c1.008,1.43,1.457,3.588,1.288,5.902c-0.112,1.48-1.681,4.758-1.819,4.939
		c-4.312,5.383-12.965,1.77-19.824,3.562c0,0-1.036,0.104-1.567,0.234c-0.925,0.182-2.492,0.885-3.221,1.402
		c-3.836,2.705-6.552,8.766-9.044,12.924c-5.739,9.699-12.151,19.088-17.725,28.916c-1.345,2.393-5.181,8.219-5.487,8.764
		c-0.645,1.145-1.681,2.211-2.128,3.537c-0.7,2.053-0.252,5.744-0.31,8.24c-0.084,4.76-0.698,9.336-0.055,13.965
		c0.195,1.379,0.951,2.965,1.734,3.822c2.633,2.834,9.156,1.066,13.133,1.094c2.912,0,5.46,0.883,7.168,2.156
		c4.088,3.068,3.023,9.205,0.057,12.48c-0.979,1.094-2.492,1.82-3.809,2.211c-2.352,0.182-5.6,0.391-6.943,0.285
		c-8.597-0.807-17.977-1.43-26.713-0.779c-2.184,0.156-4.396-0.207-6.748,0.105c-3.584,0.441-9.324,1.17-13.271,0.676
		c-1.597-0.207-3.306-1.092-4.312-1.949c-0.363-0.287-0.562-0.703-0.953-0.963c-0.924-0.572-1.371-1.949-1.764-3.043
		c-2.548-6.707,3.5-11.596,10.248-10.738c4.061,0.52,8.848,0.416,11.229-1.82c2.408-2.262,1.764-6.293,2.1-10.557
		c0.252-3.459-0.027-7.178,0.225-10.479c0.084-1.248,0.31-2.627,0-3.797c-0.309-1.195-1.203-2.027-1.735-2.99
		c-1.933-3.512-4.479-6.684-6.384-10.115c-3.5-6.268-7.393-12.143-11.172-18.15c-1.961-3.119-3.584-6.604-5.824-9.543
		c-2.323-3.041-4.2-6.631-6.301-9.932c-0.615-0.938-1.203-1.613-2.043-2.783c-0.757-0.807-1.85-1.352-2.688-1.896
		c-1.231-0.809-2.828-1.795-4.451-2.135c-7.168-1.508-16.521,2.08-20.216-3.611c-2.324-3.59-1.652-9.727,1.512-12.016
		c1.344-0.986,3.276-1.301,5.151-1.586c3.948-0.625,8.12,0.494,11.983,0.312C181.859,149.447,193.479,150.697,204.82,149.553"/>
	<path id="N" fill="#FCFCFC" d="M23.24,148.643c0.728-0.076,1.176,0.234,1.764,0.209c3.977-0.025,8.064,0.078,11.816,0.182
		c6.384,0.209,19.796-1.273,24.5,1.457c6.664,3.848,8.652,11.207,11.928,18.463c1.512,3.379,3.136,6.76,4.564,10.375
		c2.379,6.031,5.739,11.805,7.672,18.176c0.588,1.949,1.959,4.133,2.8,6.031c2.239,5.07,4.2,10.037,6.3,15.107
		c1.064,2.496,2.548,5.148,3.5,7.672c0.812,2.158,6.973,15.574,6.973,15.574s-0.084-4.082-0.141-5.305
		c-0.111-3.873,0.084-7.045,0.393-10.869c0.252-3.562,0.055-7.045,0.027-10.479c-0.027-3.172,0.309-6.525,0.141-9.568
		c-0.141-2.574-0.336-6.162-0.084-8.736c0.42-4.473,0.111-16.512,0.084-16.693c-0.197-2.471,0.14-5.305-0.084-7.801
		c-0.141-1.326-0.617-2.887-1.316-3.85c-2.688-3.666-8.68-1.793-13.748-2.184c-3.191-0.234-5.348-1.326-7.309-2.758
		c-0.896-0.676-1.932-1.664-2.211-2.912c-1.988-8.996,4.871-12.246,13.551-11.598c1.709,0.131,3.164-0.154,4.732,0.184
		c0.196,0.053,0.616,0.182,0.616,0.182c1.708-0.26,3.892,0.209,5.544,0.416c3.191,0.391,6.748-0.053,9.828,0.26
		c1.064,0.104,2.912-0.104,4.145-0.312c0.531-0.104,5.487,0.156,7.42-0.051c4.787-0.494,9.744-1.301,14.615-0.494
		c2.801,0.469,5.32,2.443,6.301,4.758c2.211,5.357,0,8.945-3.36,11.391c-4.648,3.328-14.7-0.521-18.9,3.121
		c-0.616,0.52-1.176,1.611-1.456,2.393c-0.504,1.455-0.195,4.004-0.084,5.408c0.196,2.809-0.308,5.59-0.14,8.84
		c0.056,1.172-0.168,9.102,0,11.182c0.308,4.135-0.308,8.141,0,12.301c0.196,3.016,0,7.125-0.224,10.191
		c-0.196,2.549,0.279,4.576,0.084,7.23c-0.42,5.59-0.028,11.389-0.225,16.668c-0.168,4.289,0.896,11.779-0.447,15.342
		c-0.252,0.648-0.336,1.273-0.504,1.949c-0.785,3.172-2.828,5.486-5.097,7.254c-3.248,2.523-9.101,3.434-14.308,1.977
		c-3.893-1.064-7.196-3.951-8.988-7.148c-4.116-7.281-7.532-16.436-10.696-24.494c-2.827-7.178-6.356-14.094-9.1-21.4
		c-0.616-1.561-1.652-3.199-2.24-4.707c-1.597-4.213-3.444-8.113-5.151-12.143c-1.709-3.98-3.108-7.932-4.9-11.701
		c-0.98-2.055-5.292-13.859-6.496-14.275c-0.84,2.834,0.14,6.578-0.057,9.334c-0.336,5.461-0.027,12.145-0.111,17.525
		c-0.225,10.688-0.448,19.996,0,30.787c0.195,5.357-1.316,12.717,0.98,16.695c0.111,0.182,0.139,0.389,0.279,0.545
		c5.292,5.877,16.939-2.027,21.84,6.84c2.408,4.342-0.027,9.881-3.472,11.389c-1.792,0.779-4.479,1.066-6.72,0.857
		c-1.12-0.105-2.688,0.287-3.809,0.104c-1.792-0.338-3.611-0.078-5.656-0.363c-3.668-0.547-7.279-0.6-11.283-0.547
		c-3.809,0.025-6.973,0.053-10.725,0.078c-1.344,0.025-2.744,0.391-4.06,0.232c-5.937-0.676-14.812,2.602-18.284-2.08
		c-1.456-1.975-2.828-5.486-1.596-8.58c0.644-1.586,1.064-2.834,2.24-3.848c1.483-1.301,3.836-1.926,6.299-2.236
		c1.625-0.184,3.025,0.389,4.48,0.521c4.229,0.311,8.877-0.73,10.192-3.537c0.56-1.195,0.364-2.418,0.616-4.082
		c0.504-3.875-0.141-7.934,0.168-11.883c0.084-1.066-0.112-4.475-0.112-5.41c0.028-5.59,0.28-8.398,0.056-11.182
		c-0.476-6.447,0.532-12.559,0.141-18.773c-0.141-2.262,0.111-4.395-0.028-6.525c-0.056-0.494,0-1.535,0-1.535
		c0-4.291,0.42-8.762-0.056-13.027c-0.225-2.027,0.14-3.951-0.364-5.721c-1.933-6.604-17.948,0.6-21.224-5.98
		c-0.645-1.299-1.681-2.496-2.045-4.211c-1.035-5.148,2.885-8.633,6.412-9.752C20.691,148.693,22.062,148.748,23.24,148.643"/>
</g>
</svg>
